<svg xmlns="http://www.w3.org/2000/svg" xml:space="preserve" width="800" height="800" viewBox="0 0 31.762 31.761"><path d="m13.639 14.357.004.015h.004c-.003 0-.006-.006-.008-.015zM13.639 14.357c-.004-.021-.008-.045-.015-.063.006.02.01.046.015.063zM25.92 14.372h.002v-.001zM25.922 14.371c.004-.003.004-.013 0 0z"/><path d="M29.375 4.982c-2.68-3.214-10.233-5.485-16.611-3.666C6.049 3.23 2.674 7.44 2.231 14.882a4.214 4.214 0 0 1-.42 1.599L.107 19.96a1.06 1.06 0 0 0 .618 1.469l.556.187c.482.16.801.614.789 1.122-.15 6.657.194 8.354 7.237 8.354 7.507 0 6.544-5.521 15.615-6.599 6.707-.798 9.05-13.994 4.453-19.511zm-1.831 8.645a.745.745 0 0 1-.765.745h-.857l-.002.008a6.442 6.442 0 0 1-.704 1.707l.6.605a.764.764 0 0 1 0 1.087l-1.104 1.106c-.3.3-.785.3-1.086 0l-.603-.604a6.16 6.16 0 0 1-1.666.694c-.002 0-.004.437-.01.854a.764.764 0 0 1-.767.76h-1.563a.767.767 0 0 1-.768-.773l.009-.828a6.314 6.314 0 0 1-1.72-.708l-.599.604a.768.768 0 0 1-1.087 0l-1.109-1.105a.772.772 0 0 1 0-1.086l.602-.601a6.274 6.274 0 0 1-.706-1.72h-.83a.743.743 0 0 1-.76-.745v-1.566c0-.424.341-.768.764-.768h.838l.001-.002a6.24 6.24 0 0 1 .695-1.679l-.603-.602a.771.771 0 0 1 0-1.086l1.108-1.107a.77.77 0 0 1 1.088 0l.6.601c.53-.317 1.106-.581 1.722-.711l-.011-.839a.766.766 0 0 1 .771-.771h1.562c.422 0 .766.339.768.761.004.425.006.867.01.868a6.194 6.194 0 0 1 1.664.695l.604-.603a.773.773 0 0 1 1.087-.001l1.108 1.107c.297.3.298.785 0 1.085l-.605.603c.309.516.547 1.091.697 1.689l.002.014h.865c.424 0 .763.323.763.747v1.565h-.003z"/><circle cx="19.781" cy="12.851" r="2.159"/></svg>