<svg xmlns="http://www.w3.org/2000/svg" width="800" height="800" viewBox="0 0 32 32"><path d="m29.156 29.961-.709.709a2.006 2.006 0 0 1-2.838 0l-5.676-5.674c-.656-.658-.729-1.644-.281-2.412l-3.104-3.102a9.975 9.975 0 0 1-5.965 1.979C5.043 21.461.552 16.97.552 11.43S5.043 1.398 10.583 1.398c5.541 0 10.031 4.491 10.031 10.032 0 2.579-.98 4.923-2.58 6.7l3.035 3.035c.768-.447 1.754-.375 2.41.283l5.676 5.674c.784.785.784 2.056.001 2.839zM18.088 11.389c0-4.155-3.369-7.523-7.524-7.523a7.523 7.523 0 1 0-.001 15.046 7.525 7.525 0 0 0 7.525-7.523z"/></svg>